<svg width="56" height="55" viewBox="0 0 56 55" fill="none" xmlns="http://www.w3.org/2000/svg">
<path d="M27.6562 34.2031L35.6719 2.28125H52.3125L35.7656 53H19.6406L3.09375 2.28125H19.7812L27.6562 34.2031Z" fill="#1E90FF"/>
<path d="M27.6562 34.2031L25.7145 34.6822L29.596 34.6902L27.6562 34.2031ZM35.6719 2.28125V0.28125H34.112L33.7321 1.79417L35.6719 2.28125ZM52.3125 2.28125L54.2139 2.90157L55.0687 0.28125H52.3125V2.28125ZM35.7656 53V55H37.2169L37.667 53.6203L35.7656 53ZM19.6406 53L17.7393 53.6203L18.1894 55H19.6406V53ZM3.09375 2.28125V0.28125H0.337508L1.19238 2.90157L3.09375 2.28125ZM19.7812 2.28125L21.723 1.80222L21.3478 0.28125H19.7812V2.28125ZM29.596 34.6902L37.6117 2.76833L33.7321 1.79417L25.7165 33.716L29.596 34.6902ZM35.6719 4.28125H52.3125V0.28125H35.6719V4.28125ZM50.4111 1.66093L33.8643 52.3797L37.667 53.6203L54.2139 2.90157L50.4111 1.66093ZM35.7656 51H19.6406V55H35.7656V51ZM21.542 52.3797L4.99512 1.66093L1.19238 2.90157L17.7393 53.6203L21.542 52.3797ZM3.09375 4.28125H19.7812V0.28125H3.09375V4.28125ZM17.8395 2.76028L25.7145 34.6822L29.598 33.7241L21.723 1.80222L17.8395 2.76028Z" fill="black"/>
</svg>