<svg width="373" height="220" viewBox="0 0 373 220" fill="none" xmlns="http://www.w3.org/2000/svg">
<path d="M241.1 215.2L182.3 39.7H181.1C181.3 43.7 181.6 49.4 182 56.8C182.4 64 182.7 71.9 182.9 80.5C183.3 88.9 183.5 96.8 183.5 104.2V215.2H149V121L202.4 1L258.8 169.3H260L318.8 1H372.2V215.2H335.6V102.4C335.6 95.6 335.7 88.2 335.9 80.2C336.3 72 336.6 64.3 336.8 57.1C337.2 49.9 337.5 44.2 337.7 40H336.5L275.3 215.2H241.1Z" fill="white"/>
<line x1="204.337" y1="2.88729" x2="122.337" y2="218.887" stroke="#1874cc" stroke-width="30"/>
<path d="M81.2 215L0 0.599991H37.6L83.2 127C85.3333 132.867 87.6 139.4 90 146.6C92.4 153.8 94.5333 160.733 96.4 167.4C98.2667 173.8 99.6 179.267 100.4 183.8H102C103.067 179.267 104.533 173.667 106.4 167C108.533 160.333 110.8 153.4 113.2 146.2C115.867 139 118.133 132.6 120 127L165.6 0.599991H203.2L121.6 215H81.2Z" fill="white"/>
</svg>
